<mxfile host="app.diagrams.net" modified="2023-06-09T08:46:06.295Z" agent="Mozilla/5.0 (Windows NT 10.0; Win64; x64; rv:109.0) Gecko/20100101 Firefox/112.0" version="21.3.7" etag="GHcfk3a99UCY5ADCNkp3" type="github">
  <diagram name="第 1 页" id="IYlAvzeQxVErGMHnCfxo">
    <mxGraphModel>
      <root>
        <mxCell id="0" />
        <mxCell id="1" parent="0" />
      </root>
    </mxGraphModel>
  </diagram>
</mxfile>
